<svg width="14" height="14" viewBox="0 0 14 14" fill="none" xmlns="http://www.w3.org/2000/svg">
<g id="Component" clip-path="url(#clip0_966_1255)">
<g id="Group 58">
<path id="Vector" fill-rule="evenodd" clip-rule="evenodd" d="M7.03496 9.26781L5.52026 10.7825L7.03496 12.297L8.54954 10.7825L7.03496 9.26781ZM4.76291 10.0251C4.34465 10.4434 4.34465 11.1215 4.76291 11.5396L6.27761 13.0543C6.69587 13.4726 7.37399 13.4726 7.79231 13.0543L9.30689 11.5396C9.7252 11.1215 9.7252 10.4433 9.30689 10.0251L7.33785 8.05615C7.17057 7.88883 6.89929 7.88883 6.73202 8.05615L4.76291 10.0251Z" fill="#F8F8F8"/>
<path id="Vector_2" fill-rule="evenodd" clip-rule="evenodd" d="M9.26814 7.03493L10.7828 8.54958L12.2975 7.03493L10.7828 5.52028L9.26814 7.03493ZM8.05637 6.73202C7.88909 6.89935 7.88909 7.17057 8.05637 7.33788L10.0254 9.30685C10.4437 9.7251 11.1218 9.7251 11.5401 9.30685L13.0548 7.7922C13.473 7.37396 13.473 6.69581 13.0548 6.27755L11.5401 4.7629C11.1218 4.34466 10.4437 4.34466 10.0254 4.7629L8.05637 6.73202Z" fill="#F8F8F8"/>
<path id="Vector_3" fill-rule="evenodd" clip-rule="evenodd" d="M7.03496 1.77244L5.52026 3.28709L7.03496 4.80174L8.54954 3.28709L7.03496 1.77244ZM4.76291 2.52975C4.34465 2.948 4.34465 3.62614 4.76291 4.0444L6.73195 6.01337C6.89927 6.18069 7.17051 6.18069 7.33783 6.01337L9.30686 4.0444C9.72517 3.62615 9.72517 2.94801 9.30686 2.52975L7.79229 1.0151C7.37403 0.596854 6.69586 0.596854 6.27759 1.0151L4.76291 2.52975Z" fill="#F8F8F8"/>
<path id="Vector_4" fill-rule="evenodd" clip-rule="evenodd" d="M3.28732 5.52025L1.77274 7.03478L3.28732 8.54943L4.80202 7.03478L3.28732 5.52025ZM1.01539 6.27757C0.597083 6.69581 0.597083 7.37391 1.01539 7.79209L2.52997 9.30674C2.94823 9.72499 3.62639 9.72499 4.04467 9.30674L6.0137 7.33777C6.18103 7.17045 6.18103 6.89917 6.0137 6.73191L4.04467 4.76294C3.62641 4.34464 2.94829 4.34464 2.52997 4.76294L1.01539 6.27757Z" fill="#F8F8F8"/>
</g>
</g>
<defs>
<clipPath id="clip0_966_1255">
<rect width="13.3333" height="13.3333" fill="white" transform="translate(0.333252 0.333252)"/>
</clipPath>
</defs>
</svg>
